<svg width="1015" height="777" viewBox="0 0 1015 777" fill="none" xmlns="http://www.w3.org/2000/svg">
<path d="M16 643.798C38.4004 592.874 108.723 493.735 210.812 504.567C312.901 515.399 394.424 418.815 422.425 369.168C451.379 300.106 529.59 176.493 610.803 234.536C692.017 292.578 871.029 109.696 950.384 11" stroke="#00A0B6" stroke-width="33"/>
<path d="M46.3835 694.892C68.784 643.968 139.107 544.829 241.196 555.661C343.285 566.493 424.808 469.908 452.808 420.262C481.762 351.2 559.973 227.587 641.187 285.63C722.4 343.672 901.413 160.79 980.768 62.0938" stroke="#00A0B6" stroke-width="33"/>
<path d="M67.116 770C89.5164 719.077 159.839 619.937 261.928 630.769C364.017 641.601 445.54 545.017 473.541 495.37C502.495 426.308 580.705 302.695 661.919 360.738C743.132 418.781 922.145 235.899 1001.5 137.202" stroke="#00A0B6" stroke-width="33"/>
</svg>
