<svg width="95" height="24" viewBox="24 0 95 24" stroke-width="0" fill="none" stroke="currentColor" stroke-linecap="round" xmlns="http://www.w3.org/2000/svg" xmlns:xlink="http://www.w3.org/1999/xlink"><path fill="#292929" fill-rule="evenodd" d="M26.328,15.56 C26.328,19.616 29.424,20.096 30.984,20.096 C31.464,20.096 31.8,20.048 31.8,20.048 L31.8,17.984 C31.8,17.984 31.584,18.032 31.248,18.032 C30.36,18.032 28.656,17.72 28.656,15.296 L28.656,9.896 L31.584,9.896 L31.584,8.024 L28.656,8.024 L28.656,4.52 L26.4,4.52 L26.4,8.024 L24.744,8.024 L24.744,9.896 L26.328,9.896 L26.328,15.56 Z M35.9638952,10.1377951 L35.672,9.6518 L35.672,9.968 C35.672,10.472 35.624,10.88 35.624,10.88 L35.672,10.88 C35.7516973,10.6235825 35.8494051,10.3751696 35.9638952,10.1377951 Z M35.672,9.6518 L35.9638952,10.1377951 C36.6423874,8.73106499 37.9102779,7.712 39.512,7.712 C39.824,7.712 40.112,7.76 40.112,7.76 L40.112,10.064 C40.112,10.064 39.8,9.992 39.44,9.992 C37.952,9.992 36.584,11.048 36.032,12.848 C35.816,13.544 35.744,14.288 35.744,15.032 L35.744,20 L33.416,20 L33.416,7.856 L35.672,7.856 L35.672,9.6518 Z M40.432,16.592 C40.432,12.584 45.712,12.416 47.752,12.416 L48.28,12.416 L48.28,12.2 C48.28,10.208 47.152,9.536 45.616,9.536 C43.744,9.536 42.232,10.712 42.232,10.712 L41.272,9.008 C41.272,9.008 43.024,7.568 45.808,7.568 C48.88,7.568 50.608,9.248 50.608,12.32 L50.608,20 L48.448,20 L48.448,18.848 C48.448,18.296 48.496,17.888 48.496,17.888 L48.448,17.888 C48.448,17.888 47.464,20.288 44.56,20.288 C42.472,20.288 40.432,19.016 40.432,16.592 Z M42.784,16.472 C42.784,17.456 43.552,18.416 45.064,18.416 C47.032,18.416 48.304,16.352 48.304,14.552 L48.304,14.168 L47.704,14.168 C45.952,14.168 42.784,14.288 42.784,16.472 Z M55.968,20 L58.656,20 L63.144,7.856 L60.696,7.856 L57.744,16.064 C57.504,16.736 57.336,17.72 57.312,17.72 L57.264,17.72 C57.24,17.72 57.096,16.736 56.856,16.064 L53.904,7.856 L51.432,7.856 L55.968,20 Z M63.296,13.928 C63.296,10.064 65.912,7.568 69.368,7.568 C72.8,7.568 74.624,10.112 74.624,13.256 C74.624,13.568 74.552,14.264 74.552,14.264 L65.696,14.264 C65.816,16.928 67.712,18.272 69.872,18.272 C71.96,18.272 73.472,16.856 73.472,16.856 L74.432,18.56 C74.432,18.56 72.632,20.288 69.728,20.288 C65.912,20.288 63.296,17.528 63.296,13.928 Z M65.768,12.512 L72.248,12.512 C72.176,10.424 70.88,9.416 69.32,9.416 C67.544,9.416 66.104,10.52 65.768,12.512 Z M76.312,16.688 C76.312,19.736 78.256,20.096 79.576,20.096 C79.984,20.096 80.344,20.048 80.344,20.048 L80.344,17.984 C80.344,17.984 80.152,18.008 79.936,18.008 C79.216,18.008 78.64,17.744 78.64,16.28 L78.64,3.056 L76.312,3.056 L76.312,16.688 Z M80.928,13.904 C80.928,10.232 83.856,7.568 87.48,7.568 C91.104,7.568 94.032,10.232 94.032,13.904 C94.032,17.6 91.104,20.288 87.48,20.288 C83.856,20.288 80.928,17.6 80.928,13.904 Z M83.304,13.904 C83.304,16.448 85.2,18.272 87.48,18.272 C89.784,18.272 91.656,16.448 91.656,13.904 C91.656,11.384 89.784,9.584 87.48,9.584 C85.2,9.584 83.304,11.384 83.304,13.904 Z M95.792,20 L98.12,20 L98.12,14.288 L99.872,14.288 L103.52,20 L106.232,20 L101.744,13.256 L101.744,13.208 L105.776,7.856 L103.136,7.856 L99.824,12.32 L98.12,12.32 L98.12,3.056 L95.792,3.056 L95.792,20 Z M106.432,16.592 C106.432,12.584 111.712,12.416 113.752,12.416 L114.28,12.416 L114.28,12.2 C114.28,10.208 113.152,9.536 111.616,9.536 C109.744,9.536 108.232,10.712 108.232,10.712 L107.272,9.008 C107.272,9.008 109.024,7.568 111.808,7.568 C114.88,7.568 116.608,9.248 116.608,12.32 L116.608,20 L114.448,20 L114.448,18.848 C114.448,18.296 114.496,17.888 114.496,17.888 L114.448,17.888 C114.448,17.888 113.464,20.288 110.56,20.288 C108.472,20.288 106.432,19.016 106.432,16.592 Z M108.784,16.472 C108.784,17.456 109.552,18.416 111.064,18.416 C113.032,18.416 114.304,16.352 114.304,14.552 L114.304,14.168 L113.704,14.168 C111.952,14.168 108.784,14.288 108.784,16.472 Z"></path></svg>